TITLE ""
FILE "Step2_Track48.mp3" MP3
  TRACK 01 AUDIO
    TITLE "Step2_Track48_01"
    INDEX 01 00:00:00
  TRACK 02 AUDIO
    TITLE "Step2_Track48_02"
    INDEX 01 00:00:24
  TRACK 03 AUDIO
    TITLE "Step2_Track48_03"
    INDEX 01 00:01:61
  TRACK 04 AUDIO
    TITLE "Step2_Track48_04"
    INDEX 01 00:02:46
  TRACK 05 AUDIO
    TITLE "Step2_Track48_05"
    INDEX 01 00:03:46
  TRACK 06 AUDIO
    TITLE "Step2_Track48_06"
    INDEX 01 00:03:67
  TRACK 07 AUDIO
    TITLE "Step2_Track48_07"
    INDEX 01 00:05:25
  TRACK 08 AUDIO
    TITLE "Step2_Track48_08"
    INDEX 01 00:05:39
  TRACK 09 AUDIO
    TITLE "Step2_Track48_09"
    INDEX 01 00:06:34
  TRACK 10 AUDIO
    TITLE "Step2_Track48_10"
    INDEX 01 00:06:46
  TRACK 11 AUDIO
    TITLE "Step2_Track48_11"
    INDEX 01 00:08:35
  TRACK 12 AUDIO
    TITLE "Step2_Track48_12"
    INDEX 01 00:08:53
  TRACK 13 AUDIO
    TITLE "Step2_Track48_13"
    INDEX 01 00:09:46
  TRACK 14 AUDIO
    TITLE "Step2_Track48_14"
    INDEX 01 00:09:60
  TRACK 15 AUDIO
    TITLE "Step2_Track48_15"
    INDEX 01 00:11:49
  TRACK 16 AUDIO
    TITLE "Step2_Track48_16"
    INDEX 01 00:11:67
  TRACK 17 AUDIO
    TITLE "Step2_Track48_17"
    INDEX 01 00:12:62
  TRACK 18 AUDIO
    TITLE "Step2_Track48_18"
    INDEX 01 00:13:07
  TRACK 19 AUDIO
    TITLE "Step2_Track48_19"
    INDEX 01 00:14:36
  TRACK 20 AUDIO
    TITLE "Step2_Track48_20"
    INDEX 01 00:14:69
  TRACK 21 AUDIO
    TITLE "Step2_Track48_21"
    INDEX 01 00:15:63
  TRACK 22 AUDIO
    TITLE "Step2_Track48_22"
    INDEX 01 00:16:05
  TRACK 23 AUDIO
    TITLE "Step2_Track48_23"
    INDEX 01 00:17:60
  TRACK 24 AUDIO
    TITLE "Step2_Track48_24"
    INDEX 01 00:18:04
  TRACK 25 AUDIO
    TITLE "Step2_Track48_25"
    INDEX 01 00:19:08
  TRACK 26 AUDIO
    TITLE "Step2_Track48_26"
    INDEX 01 00:19:23
  TRACK 27 AUDIO
    TITLE "Step2_Track48_27"
    INDEX 01 00:21:18
  TRACK 28 AUDIO
    TITLE "Step2_Track48_28"
    INDEX 01 00:21:46
  TRACK 29 AUDIO
    TITLE "Step2_Track48_29"
    INDEX 01 00:22:51
  TRACK 30 AUDIO
    TITLE "Step2_Track48_30"
    INDEX 01 00:22:59
  TRACK 31 AUDIO
    TITLE "Step2_Track48_31"
    INDEX 01 00:24:32
  TRACK 32 AUDIO
    TITLE "Step2_Track48_32"
    INDEX 01 00:24:64
  TRACK 33 AUDIO
    TITLE "Step2_Track48_33"
    INDEX 01 00:25:46
  TRACK 34 AUDIO
    TITLE "Step2_Track48_34"
    INDEX 01 00:25:69
  TRACK 35 AUDIO
    TITLE "Step2_Track48_35"
    INDEX 01 00:27:48
  TRACK 36 AUDIO
    TITLE "Step2_Track48_36"
    INDEX 01 00:27:66
  TRACK 37 AUDIO
    TITLE "Step2_Track48_37"
    INDEX 01 00:28:71
  TRACK 38 AUDIO
    TITLE "Step2_Track48_38"
    INDEX 01 00:29:10
  TRACK 39 AUDIO
    TITLE "Step2_Track48_39"
    INDEX 01 00:31:52
  TRACK 40 AUDIO
    TITLE "Step2_Track48_40"
    INDEX 01 00:32:04
  TRACK 41 AUDIO
    TITLE "Step2_Track48_41"
    INDEX 01 00:32:73
  TRACK 42 AUDIO
    TITLE "Step2_Track48_42"
    INDEX 01 00:33:12
  TRACK 43 AUDIO
    TITLE "Step2_Track48_43"
    INDEX 01 00:35:03
